Coordinates
version=1
nRows=26
nColumns=24
inDegrees=yes

Units are S.I. units (second, meters, Newtons, ...)
Angles are in degrees.

endheader
time	pelvis_tilt	pelvis_list	pelvis_rotation	pelvis_tx	pelvis_ty	pelvis_tz	hip_flexion_r	hip_adduction_r	hip_rotation_r	knee_angle_r	ankle_angle_r	subtalar_angle_r	mtp_angle_r	hip_flexion_l	hip_adduction_l	hip_rotation_l	knee_angle_l	ankle_angle_l	subtalar_angle_l	mtp_angle_l	lumbar_extension	lumbar_bending	lumbar_rotation
      5.10500000	     12.79677881	     -7.01542342	     16.05235486	      0.50697019	      0.93480131	     -0.28065112	     -7.64597313	     13.78355996	     -4.46490678	     -9.13028673	     20.01730737	     -4.76555347	      0.00000000	      3.82919740	    -10.08673048	     11.30701233	    -67.19239356	     11.93810091	     -1.78067555	      0.00000000	    -25.11152435	     12.03629009	    -12.73141453
      5.11000000	     12.78012725	     -6.77705359	     15.59501128	      0.51284255	      0.93556142	     -0.28016325	     -8.32552887	     13.57992825	     -4.19904207	     -8.74868485	     20.13576623	     -4.48733193	      0.00000000	      4.44327880	     -9.53071470	     10.91647944	    -66.84247160	     12.54053074	     -2.02406399	      0.00000000	    -25.29190279	     11.60687285	    -12.15806985
      5.11500000	     12.68528808	     -6.53938845	     15.34809680	      0.51875082	      0.93614801	     -0.27983462	     -8.91788782	     13.39293246	     -4.11927561	     -8.30744817	     20.19360672	     -4.32517761	      0.00000000	      5.19435300	     -8.95861131	     10.75105956	    -66.44517587	     13.15426187	     -2.02804890	      0.00000000	    -25.31389308	     11.23079877	    -11.89141730
      5.12000000	     12.64505891	     -6.30519416	     14.88077503	      0.52460483	      0.93679926	     -0.27935323	     -9.55646285	     13.16747006	     -3.91726445	     -7.94254151	     20.32960351	     -3.97347931	      0.00000000	      5.80346050	     -8.42775342	     10.32910212	    -65.91953527	     13.70879661	     -2.18176301	      0.00000000	    -25.45741508	     10.79473736	    -11.32884404
      5.12500000	     12.60349762	     -6.07375825	     14.49390373	      0.53048811	      0.93738804	     -0.27892874	    -10.19585235	     12.95834197	     -3.76200112	     -7.54165249	     20.41540959	     -3.71954401	      0.00000000	      6.41904996	     -7.91207785	      9.98670451	    -65.31790325	     14.25394580	     -2.19178485	      0.00000000	    -25.56678037	     10.38679263	    -10.88095627
      5.13000000	     12.50996069	     -5.86924293	     14.21363294	      0.53636871	      0.93782649	     -0.27860454	    -10.76455800	     12.78099802	     -3.70064443	     -7.12349752	     20.47817247	     -3.50622618	      0.00000000	      7.11634606	     -7.41414134	      9.75628042	    -64.66271788	     14.78066906	     -2.07853085	      0.00000000	    -25.57963323	     10.04126372	    -10.56213141
      5.13500000	     12.50118252	     -5.66734009	     13.71295915	      0.54222014	      0.93837996	     -0.27808831	    -11.41743392	     12.56928859	     -3.51019372	     -6.76493756	     20.57474726	     -3.14831048	      0.00000000	      7.63657943	     -6.97797952	      9.27403384	    -63.87202693	     15.24629479	     -2.11115860	      0.00000000	    -25.74078655	      9.62549985	     -9.95582441
      5.14000000	     12.47578693	     -5.46626118	     13.31395091	      0.54805792	      0.93882947	     -0.27766836	    -12.04158980	     12.37164499	     -3.38520277	     -6.39461674	     20.65469867	     -2.87457240	      0.00000000	      8.18447632	     -6.54139220	      8.89943922	    -63.01823307	     15.72187087	     -2.00814677	      0.00000000	    -25.85933047	      9.24897405	     -9.49412007
      5.14500000	     12.38505959	     -5.30008869	     13.02018335	      0.55388137	      0.93910293	     -0.27736456	    -12.57390911	     12.21378804	     -3.35057084	     -6.02253214	     20.73413403	     -2.64906094	      0.00000000	      8.82472788	     -6.12192769	      8.64583738	    -62.11717557	     16.19138466	     -1.78622820	      0.00000000	    -25.86962168	      8.94535794	     -9.17044161
      5.15000000	     12.37187287	     -5.13657433	     12.53360857	      0.55963453	      0.93946711	     -0.27687192	    -13.17237711	     12.01976668	     -3.18945113	     -5.71750816	     20.84541119	     -2.28010002	      0.00000000	      9.30963629	     -5.76416517	      8.17449324	    -61.09328664	     16.62514445	     -1.71297413	      0.00000000	    -26.02428396	      8.56995097	     -8.59051019
      5.15500000	     12.38861115	     -4.96896859	     12.10325659	      0.56545343	      0.93983112	     -0.27647396	    -13.81460525	     11.83541965	     -3.04182406	     -5.37833773	     20.88833026	     -2.02106002	      0.00000000	      9.73969851	     -5.41424659	      7.76816270	    -59.98183899	     17.00664593	     -1.51130154	      0.00000000	    -26.18002402	      8.23342238	     -8.07956162
      5.16000000	     12.35028124	     -4.83621360	     11.72475277	      0.57122499	      0.94002437	     -0.27613009	    -14.36446078	     11.68058450	     -2.95638353	     -5.07606523	     20.99321788	     -1.74342966	      0.00000000	     10.23346074	     -5.08933473	      7.42860516	    -58.81731980	     17.42253431	     -1.26580988	      0.00000000	    -26.26363389	      7.94264757	     -7.65740151
      5.16500000	     12.33466156	     -4.71587347	     11.31671225	      0.57699546	      0.94020908	     -0.27577269	    -14.93280299	     11.52822545	     -2.83174456	     -4.78384990	     21.07247843	     -1.46499703	      0.00000000	     10.67084392	     -4.80011281	      7.05796255	    -57.56686260	     17.79306897	     -1.01250775	      0.00000000	    -26.37530330	      7.65634896	     -7.17759560
      5.17000000	     12.35905684	     -4.59564673	     10.89520567	      0.58275625	      0.94041270	     -0.27540672	    -15.54028652	     11.37310012	     -2.68690451	     -4.49597204	     21.11734542	     -1.21865652	      0.00000000	     11.03168384	     -4.53671496	      6.67385135	    -56.22879933	     18.09924531	     -0.72270112	      0.00000000	    -26.53626706	      7.37259544	     -6.66525737
      5.17500000	     12.35080318	     -4.50674952	     10.50303287	      0.58851510	      0.94048608	     -0.27508808	    -16.08900146	     11.24405954	     -2.57444718	     -4.24005219	     21.21824638	     -0.96184012	      0.00000000	     11.41286274	     -4.30340164	      6.33077720	    -54.82569241	     18.44208211	     -0.40533387	      0.00000000	    -26.64583717	      7.13017515	     -6.21757340
      5.18000000	     12.37586783	     -4.41921830	     10.09601557	      0.59425075	      0.94057478	     -0.27477754	    -16.66541923	     11.10935427	     -2.41470605	     -3.99939240	     21.28105526	     -0.73491101	      0.00000000	     11.72073192	     -4.08730194	      5.99132282	    -53.33361213	     18.73188965	     -0.05952550	      0.00000000	    -26.80021887	      6.88728653	     -5.73098518
      5.18500000	     12.30608337	     -4.38127828	      9.82913972	      0.60000170	      0.94042214	     -0.27460366	    -17.11685963	     11.04656009	     -2.35439113	     -3.76542892	     21.37075463	     -0.54240251	      0.00000000	     12.15046083	     -3.88971909	      5.81604867	    -51.81853250	     19.03485928	      0.40328830	      0.00000000	    -26.81285679	      6.73923450	     -5.42980379
      5.19000000	     12.35558187	     -4.33076442	      9.32210478	      0.60573680	      0.94045839	     -0.27426693	    -17.68802054	     10.90231025	     -2.12274473	     -3.59985986	     21.49484275	     -0.26074164	      0.00000000	     12.34432901	     -3.75256839	      5.39250420	    -50.15275505	     19.30639058	      0.70442548	      0.00000000	    -27.00341563	      6.51715844	     -4.84698103
      5.19500000	     12.42045032	     -4.28150771	      8.91545524	      0.61145291	      0.94045011	     -0.27401153	    -18.26721773	     10.78688515	     -1.92402222	     -3.42731975	     21.55170590	     -0.07395639	      0.00000000	     12.50863353	     -3.60847400	      5.10020019	    -48.42488669	     19.52381430	      1.11020287	      0.00000000	    -27.20371558	      6.32324790	     -4.36589079
      5.20000000	     12.46327967	     -4.25957845	      8.53643948	      0.61720296	      0.94034382	     -0.27380889	    -18.81173342	     10.69539713	     -1.74226841	     -3.27083529	     21.63690541	      0.12139302	      0.00000000	     12.67251511	     -3.49254161	      4.84846992	    -46.63923405	     19.71256219	      1.53268422	      0.00000000	    -27.36319026	      6.17146814	     -3.91508812
      5.20500000	     12.51975475	     -4.25237917	      8.15776319	      0.62295998	      0.94020714	     -0.27361905	    -19.36224568	     10.61247189	     -1.53978136	     -3.12870004	     21.71952122	      0.29536695	      0.00000000	     12.78459981	     -3.40279496	      4.61315254	    -44.78087022	     19.85429090	      1.96507808	      0.00000000	    -27.53499409	      6.03367941	     -3.45398013
      5.21000000	     12.55014146	     -4.28018177	      7.78245565	      0.62873296	      0.93997084	     -0.27346074	    -19.86359514	     10.55238947	     -1.33612933	     -3.02813115	     21.83149544	      0.49842020	      0.00000000	     12.89432966	     -3.34885871	      4.41169418	    -42.86456044	     19.99874245	      2.39822204	      0.00000000	    -27.67233433	      5.94025562	     -3.03008658
      5.21500000	     12.59368352	     -4.32034152	      7.41936860	      0.63454794	      0.93969937	     -0.27331954	    -20.37815585	     10.50294912	     -1.10463878	     -2.93140765	     21.94356163	      0.68168776	      0.00000000	     12.95299560	     -3.31971332	      4.22915728	    -40.88696374	     20.07283133	      2.84764454	      0.00000000	    -27.81288627	      5.86540116	     -2.59944655
      5.22000000	     12.66404497	     -4.37772941	      7.03596180	      0.64033778	      0.93942700	     -0.27318048	    -20.90057074	     10.45671301	     -0.86711460	     -2.87711917	     22.02855641	      0.85245014	      0.00000000	     12.93791208	     -3.31773339	      4.06676672	    -38.83776024	     20.10350418	      3.25733610	      0.00000000	    -27.99860669	      5.79516378	     -2.13839129
      5.22500000	     12.73696033	     -4.45967687	      6.67245043	      0.64618042	      0.93908606	     -0.27306952	    -21.42357256	     10.43358488	     -0.61508680	     -2.82864842	     22.13386324	      1.02544264	      0.00000000	     12.89005810	     -3.34726386	      3.94070089	    -36.74927115	     20.07237344	      3.66722116	      0.00000000	    -28.17122868	      5.76215978	     -1.69443229
      5.23000000	     12.79987165	     -4.57037189	      6.32985280	      0.65204501	      0.93867143	     -0.27298553	    -21.91983200	     10.43722902	     -0.36767877	     -2.81258241	     22.23364418	      1.19657373	      0.00000000	     12.82472896	     -3.40925925	      3.85606150	    -34.62427041	     19.99464486	      4.05999068	      0.00000000	    -28.33051595	      5.76278360	     -1.26418522
